<?xml version="1.0" encoding="UTF-8"?><svg id="Layer_2" xmlns="http://www.w3.org/2000/svg" viewBox="0 0 317 71.67"><defs><style>.cls-1{fill:#fff;}</style></defs><g id="Layer_1-2"><g><g><path class="cls-1" d="m18.99,20.64l3.55-1.08,7.91,23.45,9.21-23.85,9.61,23.85,7.5-23.45,3.55,1.08-10.51,31.94-10.15-24.08-9.57,24.08-11.1-31.94Z"/><path class="cls-1" d="m90.25,20.64l3.5-1.08v32.53h-3.5v-14.33h-19v14.33h-3.5v-31.45l3.5-1.08v15h19v-13.93Z"/><path class="cls-1" d="m103.86,20.64l3.5-1.08v32.53h-3.5v-31.45Z"/><path class="cls-1" d="m129.74,23.15v28.93h-3.5v-28.93h-11.01l1.08-3.19h24.44l-1.08,3.19h-9.93Z"/><path class="cls-1" d="m167.16,48.89l-1.08,3.19h-18.6V19.83h19.68l-1.08,3.19h-15.09v11.46h13.34l-1.08,3.14h-12.26v11.28h16.17Z"/><path class="cls-1" d="m192.09,34.65l-1.08,3.14h-12.26v14.29h-3.5V20.01h19.63l-1.08,3.19h-15.05v11.46h13.34Z"/><path class="cls-1" d="m200.5,36c0-9.25,7.55-16.8,16.8-16.8s16.8,7.55,16.8,16.8-7.59,16.8-16.8,16.8-16.8-7.55-16.8-16.8Zm30.01,0c0-7.37-5.84-13.57-13.21-13.57s-13.21,6.2-13.21,13.57,5.84,13.57,13.21,13.57,13.21-6.15,13.21-13.57Z"/><path class="cls-1" d="m262.72,28.95c0,5.44-2.97,7.73-7.01,8.58l8.76,12.85-2.7,2.2-9.79-14.65h-6.69v14.15h-3.55V19.96h9.48c6.11,0,11.5,1.66,11.5,8.99Zm-17.43,5.79h5.93c4.36,0,7.91-1.3,7.91-5.79s-3.55-5.8-7.91-5.8h-5.93v11.59Z"/><path class="cls-1" d="m297.98,35.96c.45,9.25-6.24,16.13-16.13,16.13h-9.97V19.83h9.97c9.88,0,16.58,6.33,16.13,16.13Zm-22.6,12.98h6.47c7.95,0,13.03-6.6,12.58-12.98.45-7.28-4.63-12.94-12.58-12.94h-6.47v25.92Z"/></g><path class="cls-1" d="m0,0v71.67h317V0H0Zm1.8,69.88V1.8h313.41v68.08H1.8Z"/></g></g></svg>